<?xml version="1.0" encoding="utf-8"?>
<!-- Generator: Adobe Illustrator 17.1.0, SVG Export Plug-In . SVG Version: 6.00 Build 0)  -->
<!DOCTYPE svg PUBLIC "-//W3C//DTD SVG 1.1//EN" "http://www.w3.org/Graphics/SVG/1.1/DTD/svg11.dtd">
<svg version="1.1" id="Layer_1" xmlns="http://www.w3.org/2000/svg" xmlns:xlink="http://www.w3.org/1999/xlink" x="0px" y="0px"
	 viewBox="0 0 648 648" enable-background="new 0 0 648 648" xml:space="preserve">
<g>
	<path fill="#B20808" d="M366.8,23c18.5,4.6,22.4,16,21.8,34.7c-1.8,54-0.5,108.1-0.7,162.2c0,7.4,0.7,10.4,9.5,7.9
		c20.2-5.5,37.6,1.2,52,15.5c46.6,46.7,92.7,93.8,139.4,140.4c6,6,5.8,10.7,1.1,16.5c-5.4,6.7-11.5,12-20.1,14.7
		c-98.9,31.1-197.6,62.5-296.5,93.5c-18,5.6-36.8,5.8-55.4,2c-6.3-1.3-10.6-5-14.2-10.5c-38-57.4-76.2-114.7-114.3-172.1
		c-7-10.5-5.9-13.8,6.5-17.3c26.7-7.6,53.6-14.9,80.3-22.3c43.8-12.1,87.5-24.4,131.4-36.1c7.1-1.9,9-4.8,9-11.8
		c-0.3-59.5-0.1-119-0.1-178.5c0-2.7,0.1-5.4,0-8.2c0-2.9,1.1-4.4,4.2-4.3c2.8,0.1,3.2,1.9,3.2,4.1c0,2.7,0,5.4,0,8.2
		c0,78.5,0,157.1,0,235.6c0,9.9,10.1,17.6,19.5,15.2c4.7-1.2,2.8-4.9,2.8-7.5c0.2-24.5,0.2-49,0.2-73.4c0-55.8,0.2-111.5-0.1-167.3
		c0-8.9,0.4-15.4,11.9-13.7c2.3,0.4,6.5,0.6,6.4-3.1c-0.1-4-4.3-2.5-6.5-2.3c-12.8,1-25-1.4-37.1-4.9c-6.1-1.7-6-4.1-1.7-8.1
		c6-5.6,14.2-5.9,21-9.5C349.1,23,357.9,23,366.8,23z M503,335.5c-2-11.5-9.1-20-17.4-27.5c-26-23.9-58.4-33.4-92-39.9
		c-5.4-1-6.2,1.9-6.2,6.3c0,9.8-0.4,19.7-0.4,29.5c0,4.2-1.9,6.9-5.2,9.3c-15,10.8-56.3,10.7-71.4-0.1c-6.3-4.6-6.9-9.7-0.4-13.7
		c5.6-3.4,6.7-7.7,6.8-13.5c0.3-20.8,0.3-21.3-20-17.9c-33.1,5.6-64.7,15.4-90.8,37.9c-15.1,13.1-24.9,29.1-22.8,50.3
		c16.9-55.6,64.9-65.5,111.4-77.7c-11.2,8.4-24.7,12.1-37.1,18.2c-16.6,8.1-32.3,17.6-41,35.1c-5.2,10.5-5.6,17.9-1.6,26
		c-2.7-21.4,22.8-44.5,43.4-49.7c-12.5,8.8-20.2,21.4-28.3,33.8c-10.7,16.4-9.4,34.1,4.2,48.3c12.8,13.4,28.7,21.3,46.1,26.9
		c37.4,12,75.5,13.1,113.7,5.3c24.4-5,47.7-13.5,65.6-32.3c17.4-18.2,14.3-44.1-7.7-58.3c4.6,18.4-4.6,30.5-17.7,40.4
		c-5.1,3.9-10.9,7-16.8,9.5c-38,15.9-77.1,16.9-116.7,7.2c-17.3-4.2-33.5-11.1-46.2-24.3c-12.8-13.3-13.8-28.3-3-40.3
		c2.7,24,11.8,37.8,34.3,48.5c41.3,19.6,83.4,19.8,124.7,0.5c31-14.5,39.2-34.4,28.7-67.9c23.3,12.7,44.5,24.8,44.4,56.3
		c5.4-14.6,1.5-25.9-5.6-36.4c-9.2-13.8-23.2-21.6-37.5-28.8c-11.1-5.6-23.7-8-33.7-15.8C444.2,289.6,479.7,301.6,503,335.5z
		 M212.5,465.4c-1.8,4.7-0.7,8.2,3.3,11.3c5.1,4,10.5,7.4,16.5,9.9c22.2,9.3,48.3,3.9,60.2-12.1c3.3-4.4,3.7-8.2,0.8-13.1
		C281,489.3,232,493,212.5,465.4z"/>
	<path fill="#C5CEEA" d="M246.4,629c-11.8-4.3-23.2-9.4-32.8-17.9c-5.4-4.8-8.3-10-7.9-17.7c0.9-16.3,1-32.6,1.3-48.9
		c0.1-5,0.1-8.6,7.2-6.2c15.8,5.1,31.6,2.8,47.1-2c110.4-34.1,220.7-68.3,331-102.4c2.6-0.8,5.2-1.4,8-2.2c2.1,3.6,0.7,7.1-0.3,10.6
		c-6,19.4-12.1,38.8-17.8,58.4c-1.5,5.2-4.6,7.7-9.3,9.5c-98,38-196,76.1-293.9,114.2c-4.1,1.6-8.1,3.1-12.2,4.7
		C260,629,253.2,629,246.4,629z"/>
	<path fill="#959AAF" d="M406.8,300.5c20.9,3.2,33.8,20,29.3,35.1c-2.7,9-9.5,14.7-17.1,19.4c-15.9,9.9-33.7,14.2-52,16
		c-29.8,3-59,0.6-86.3-12.9c-12.2-6-23.8-14.1-23.6-29.2c0.2-14.9,12-22.7,24.1-28.9c2.9-1.5,5.6-3.9,9.3-2.8
		c-0.2,0.4-0.3,0.8-0.6,1c-24.9,19.9-22.5,40.6,7,53.6c33.3,14.6,67.1,14.2,100.7,0.3c6-2.5,11.4-6.1,16-10.6
		c11.3-11.2,11.4-24.3,0.2-35.7C411.9,303.7,409.2,302.3,406.8,300.5z"/>
	<path d="M234,355c22.4,32.5,54.6,40.1,88.1,43.9c39.2,4.4,77.3,0.3,112-20.6c12.3-7.4,21.2-17.7,23.4-32.9
		c5.9,12.2,3.1,23.9-8.2,35.1c-17.9,17.8-40.8,24.9-64.8,29c-38.6,6.6-76.5,4.2-112.8-11.6c-16.5-7.2-31-17.1-36.6-35.8
		C234.7,360.7,234.6,359,234,355z"/>
	<path d="M400.2,303.1c16.4,8.4,18.1,22.2,3.6,33.1c-15,11.3-33,13.8-51.1,14.6c-17.4,0.8-34.6-1.4-50.6-8.9
		c-9.2-4.4-19.1-9.2-19-21.5c0.1-12.6,10.4-17.1,20.3-21.7c-4.2,5.8-9.4,11.4-4.7,19.1c4,6.5,10.5,9.3,17.4,11.5
		c22.7,7.4,45.3,7,67.9-0.3C399.1,324.1,403.2,317.4,400.2,303.1z"/>
</g>
<g>
	<path d="M126.8,90.7c10.1-2.1,24.6-3.2,38.4-3.2c21.4,0,35.2,3.9,44.8,12.6c7.8,6.9,12.2,17.5,12.2,29.4c0,20.5-12.9,34-29.2,39.5
		v0.7c12,4.1,19.1,15.2,22.8,31.3c5.1,21.6,8.7,36.5,12,42.5H207c-2.5-4.4-6-17.7-10.3-37c-4.6-21.4-12.9-29.4-31-30.1h-18.8v67.1
		h-20V90.7z M146.8,161.3h20.5c21.4,0,34.9-11.7,34.9-29.4c0-20-14.5-28.7-35.6-29c-9.7,0-16.5,0.9-19.8,1.8V161.3z"/>
</g>
<g>
	<path fill="#932121" d="M595.9,236.7c-9,3.2-26.7,8.5-47.6,8.5c-23.4,0-42.7-6-57.9-20.5c-13.3-12.9-21.6-33.6-21.6-57.7
		c0.2-46.2,31.9-80,83.9-80c17.9,0,31.9,3.9,38.6,7.1l-4.8,16.3c-8.3-3.7-18.6-6.7-34.2-6.7c-37.7,0-62.3,23.4-62.3,62.3
		c0,39.3,23.7,62.5,59.8,62.5c13.1,0,22.1-1.8,26.7-4.1v-46.2h-31.5v-16.1h51V236.7z"/>
</g>
</svg>
