<?xml version="1.0" encoding="utf-8"?>
<!-- Generator: Adobe Illustrator 17.1.0, SVG Export Plug-In . SVG Version: 6.00 Build 0)  -->
<!DOCTYPE svg PUBLIC "-//W3C//DTD SVG 1.1//EN" "http://www.w3.org/Graphics/SVG/1.1/DTD/svg11.dtd">
<svg version="1.1" id="Layer_1" xmlns="http://www.w3.org/2000/svg" xmlns:xlink="http://www.w3.org/1999/xlink" x="0px" y="0px"
	 viewBox="0 0 216 216" enable-background="new 0 0 216 216" xml:space="preserve">
<g>
	<path d="M122.259,7.68c6.18,1.524,7.473,5.317,7.266,11.58c-0.594,18-0.177,36.033-0.246,54.052
		c-0.009,2.453,0.237,3.455,3.171,2.649c6.725-1.848,12.548,0.392,17.32,5.177c15.525,15.568,30.912,31.273,46.469,46.81
		c2.01,2.007,1.925,3.567,0.383,5.505c-1.785,2.244-3.827,4.009-6.709,4.915c-32.957,10.355-65.871,20.846-98.842,31.158
		c-6.006,1.878-12.257,1.95-18.46,0.671c-2.092-0.431-3.539-1.679-4.745-3.503c-12.66-19.144-25.39-38.241-38.101-57.351
		c-2.319-3.486-1.977-4.595,2.16-5.775c8.909-2.541,17.85-4.965,26.78-7.431c14.592-4.031,29.168-8.127,43.797-12.018
		c2.354-0.626,3.005-1.588,2.995-3.919c-0.085-19.833-0.049-39.666-0.048-59.499c0-0.907,0.021-1.813,0.013-2.72
		c-0.008-0.962,0.38-1.457,1.414-1.418c0.947,0.036,1.071,0.629,1.076,1.358c0.006,0.907,0.01,1.813,0.01,2.72
		c0.005,26.179,0.007,52.359,0.015,78.538c0.001,3.293,3.351,5.87,6.492,5.065c1.558-0.399,0.93-1.636,0.937-2.498
		c0.061-8.159,0.05-16.319,0.052-24.479c0.005-18.586,0.057-37.173-0.045-55.759c-0.016-2.981,0.141-5.143,3.981-4.559
		c0.768,0.117,2.173,0.202,2.134-1.019c-0.043-1.342-1.417-0.826-2.176-0.766c-4.25,0.335-8.32-0.483-12.368-1.636
		c-2.035-0.579-2.009-1.356-0.575-2.688c1.999-1.857,4.731-1.981,7.007-3.159C116.365,7.68,119.312,7.68,122.259,7.68z
		 M167.678,111.818c-0.655-3.846-3.047-6.666-5.785-9.174c-8.678-7.951-19.457-11.133-30.667-13.291
		c-1.802-0.347-2.073,0.62-2.069,2.112c0.01,3.282-0.136,6.564-0.139,9.847c-0.001,1.402-0.632,2.304-1.722,3.087
		c-5.005,3.596-18.779,3.565-23.79-0.038c-2.115-1.521-2.291-3.231-0.132-4.553c1.86-1.139,2.233-2.568,2.258-4.498
		c0.09-6.95,0.101-7.1-6.652-5.951c-11.035,1.878-21.582,5.134-30.255,12.634c-5.042,4.361-8.295,9.685-7.592,16.778
		c5.644-18.534,21.648-21.843,37.127-25.888c-3.733,2.79-8.236,4.043-12.374,6.062c-5.537,2.701-10.773,5.854-13.653,11.693
		c-1.725,3.497-1.855,5.97-0.52,8.65c-0.902-7.13,7.59-14.843,14.478-16.572c-4.157,2.939-6.728,7.129-9.428,11.27
		c-3.556,5.452-3.132,11.37,1.399,16.086c4.277,4.451,9.583,7.099,15.351,8.955c12.466,4.013,25.172,4.37,37.89,1.766
		c8.13-1.664,15.889-4.502,21.872-10.753c5.816-6.077,4.782-14.702-2.576-19.42c1.544,6.139-1.545,10.161-5.911,13.476
		c-1.692,1.284-3.622,2.343-5.586,3.165c-12.671,5.304-25.695,5.62-38.894,2.402c-5.781-1.409-11.169-3.711-15.401-8.089
		c-4.283-4.43-4.615-9.438-1.001-13.439c0.907,8.003,3.936,12.607,11.425,16.151c13.779,6.521,27.785,6.596,41.574,0.167
		c10.349-4.825,13.059-11.474,9.565-22.623c7.754,4.225,14.833,8.255,14.8,18.759c1.787-4.881,0.501-8.634-1.85-12.148
		c-3.077-4.599-7.737-7.187-12.512-9.585c-3.703-1.86-7.89-2.667-11.238-5.268C148.074,96.545,159.901,100.517,167.678,111.818z
		 M70.824,155.148c-0.591,1.579-0.22,2.731,1.102,3.783c1.696,1.349,3.51,2.46,5.493,3.29c7.397,3.093,16.087,1.284,20.081-4.028
		c1.102-1.465,1.225-2.734,0.252-4.351C93.672,163.114,77.343,164.339,70.824,155.148z"/>
	<path d="M82.131,209.68c-3.94-1.444-7.739-3.118-10.926-5.971c-1.791-1.603-2.767-3.345-2.627-5.891
		c0.298-5.43,0.342-10.874,0.436-16.314c0.029-1.68,0.018-2.853,2.407-2.08c5.263,1.702,10.526,0.929,15.69-0.667
		c36.784-11.367,73.562-22.75,110.344-34.123c0.861-0.266,1.741-0.473,2.673-0.723c0.689,1.212,0.246,2.362-0.113,3.527
		c-1.997,6.479-4.037,12.945-5.937,19.453c-0.504,1.725-1.518,2.557-3.105,3.172c-32.669,12.663-65.324,25.363-97.982,38.055
		c-1.352,0.525-2.707,1.042-4.061,1.562C86.666,209.68,84.398,209.68,82.131,209.68z"/>
	<path d="M135.61,100.18c6.966,1.063,11.266,6.664,9.773,11.684c-0.895,3.01-3.158,4.891-5.684,6.46
		c-5.3,3.292-11.234,4.72-17.33,5.333c-9.925,0.998-19.664,0.2-28.77-4.308c-4.062-2.011-7.948-4.714-7.881-9.725
		c0.067-4.978,4.002-7.554,8.041-9.632c0.951-0.489,1.856-1.313,3.116-0.934c-0.08,0.139-0.112,0.261-0.191,0.324
		c-8.296,6.64-7.507,13.547,2.345,17.88c11.091,4.878,22.358,4.722,33.555,0.106c2.004-0.827,3.787-2.021,5.33-3.546
		c3.767-3.722,3.811-8.106,0.073-11.906C137.307,101.226,136.407,100.753,135.61,100.18z"/>
	<path d="M78.008,118.342c7.459,10.821,18.185,13.383,29.356,14.645c13.079,1.478,25.773,0.09,37.339-6.873
		c4.097-2.466,7.063-5.887,7.805-10.955c1.955,4.082,1.041,7.965-2.725,11.708c-5.979,5.942-13.61,8.313-21.61,9.68
		c-12.867,2.199-25.507,1.4-37.594-3.859c-5.494-2.39-10.339-5.697-12.19-11.924C78.234,120.24,78.213,119.675,78.008,118.342z"/>
	<path d="M133.395,101.025c5.476,2.804,6.033,7.392,1.195,11.032c-5.015,3.773-11.004,4.598-17.019,4.872
		c-5.803,0.264-11.547-0.452-16.876-2.966c-3.078-1.452-6.368-3.082-6.327-7.166c0.042-4.206,3.457-5.691,6.78-7.223
		c-1.408,1.948-3.149,3.811-1.582,6.356c1.325,2.152,3.493,3.086,5.793,3.836c7.557,2.466,15.098,2.334,22.618-0.103
		C133.022,108.028,134.39,105.795,133.395,101.025z"/>
</g>
</svg>
